<svg width="512" height="512" viewBox="0 0 512 512" fill="none" xmlns="http://www.w3.org/2000/svg">
<rect width="512" height="512" fill="#DCE9E1"/>
<g clip-path="url(#clip0)">
<path d="M157.448 280.87H147.644V280.767C151.181 277.068 152.394 273.78 154.517 268.026L170.184 226.207H171.599L187.57 268.848C189.996 275.321 191.613 278.096 194.14 280.767V280.87H179.686V280.767C180.899 278.609 180.899 273.986 178.877 268.54L175.946 260.525H158.863L157.347 264.635C154.113 273.266 155.932 278.301 157.448 280.767V280.87ZM167.455 237.612L159.47 258.984H175.44L167.455 237.612Z" fill="#263141"/>
<path d="M207.786 280.767C210.11 276.143 210.717 273.574 210.717 267.512V240.181C210.717 234.016 210.11 231.55 207.786 226.926V226.823H226.283C239.423 226.823 244.679 231.961 244.679 239.77C244.679 245.935 241.445 251.072 234.167 253.435L242.86 270.697C245.993 276.862 247.51 278.506 251.25 280.459V280.87H238.413L225.272 254.771H218.904V267.512C218.904 273.677 219.41 276.143 221.836 280.767V280.87H207.685V280.767H207.786ZM219.005 228.364V253.333H224.666C233.864 253.333 236.189 246.859 236.189 239.667C236.189 232.988 233.561 228.262 224.666 228.262C223.756 228.262 221.836 228.262 219.005 228.364Z" fill="#263141"/>
<path d="M264.895 280.87V280.767C267.219 276.143 267.826 273.575 267.826 267.512V240.181C267.826 234.016 267.219 231.55 264.895 226.926V226.824C275.508 226.824 278.035 226.515 283.897 226.515C299.666 226.413 302.395 233.502 302.395 239.153C302.395 244.907 299.464 249.839 292.489 252.203C301.889 253.641 305.124 259.703 305.124 265.766C305.124 274.191 299.059 280.87 283.998 280.87H264.895ZM284.605 251.997C291.984 251.894 294.41 245.421 294.41 239.564C294.41 232.064 290.164 227.954 282.684 227.954C279.854 227.954 277.833 228.262 276.114 228.673V251.997H284.605ZM296.431 266.177C296.431 258.779 292.893 253.436 285.313 253.436H276.215V278.507C277.934 278.918 280.259 279.431 283.089 279.431C291.984 279.431 296.431 274.088 296.431 266.177Z" fill="#263141"/>
<path d="M319.781 253.95C319.781 238.229 333.427 225.693 347.174 225.693C360.819 225.693 374.667 238.229 374.667 253.95C374.667 269.67 360.819 282 347.174 282C333.427 282 319.781 269.567 319.781 253.95ZM365.368 253.95C365.368 238.743 359.707 227.235 347.073 227.235C334.539 227.235 328.979 238.743 328.979 253.95C328.979 269.156 334.539 280.562 347.073 280.562C359.707 280.562 365.368 269.259 365.368 253.95Z" fill="#263141"/>
<path d="M390.536 280.767C392.861 276.143 393.467 273.574 393.467 267.512V240.181C393.467 234.016 392.861 231.55 390.536 226.926V226.823H409.034C422.174 226.823 427.43 231.961 427.43 239.77C427.43 245.935 424.195 251.072 416.918 253.435L425.611 270.697C428.744 276.862 430.26 278.506 434 280.459V280.87H421.163L408.124 254.771H401.756V267.512C401.756 273.677 402.261 276.143 404.687 280.767V280.87H390.536V280.767ZM401.756 228.364V253.333H407.416C416.614 253.333 418.939 246.859 418.939 239.667C418.939 232.988 416.311 228.262 407.416 228.262C406.507 228.262 404.586 228.262 401.756 228.364Z" fill="#263141"/>
<path d="M114.388 259.292C111.052 259.806 107.616 259.395 104.179 259.189C101.955 258.984 99.6305 258.676 97.4068 258.573C95.2841 258.47 93.2625 258.676 91.241 259.395C90.4323 259.703 89.7248 260.011 89.0172 260.422V260.936V267.615C89.0172 273.677 88.4108 276.246 86.0859 280.87V280.972H100.237V280.87C97.8111 276.246 97.3057 273.78 97.3057 267.615V259.189C100.843 259.395 104.381 259.909 107.919 260.114C111.659 260.422 115.399 259.703 118.937 258.573C120.251 258.162 121.464 257.751 122.575 257.237V256.826C120.048 257.956 117.319 258.881 114.388 259.292Z" fill="#263141"/>
<path d="M100.237 251.689C99.3273 251.586 98.3165 251.381 97.4068 251.175V240.284C97.4068 234.119 97.9122 231.653 100.338 227.029V226.926H86.0859V227.029C88.4108 231.653 89.0172 234.119 89.0172 240.284V248.606C90.9377 249.326 92.7571 250.045 94.6776 250.661C96.4971 251.381 98.3165 251.894 100.237 252.203C103.067 252.614 105.897 252.305 108.829 250.661C105.897 251.894 102.966 252.1 100.237 251.689Z" fill="#263141"/>
<path d="M145.015 242.544C142.084 242.647 139.456 241.927 137.131 240.181C135.817 239.153 134.099 239.256 132.482 239.975C131.976 240.181 131.572 240.489 131.066 240.694V240.284C131.066 234.119 131.673 231.653 133.998 227.029V226.926H125.709C125.305 226.207 124.8 225.385 124.092 224.666C118.735 218.603 111.659 215.315 103.775 213.363C96.4974 211.411 89.0176 210.794 81.4367 211.103C80.3248 211.103 79.1119 211.205 78 211.308V211.719C84.1658 212.027 90.1295 213.363 95.7899 215.624C102.36 218.192 107.414 222.611 108.93 229.495C109.537 232.475 109.537 235.66 109.739 238.742C109.84 241.208 110.244 243.571 111.558 245.626C112.165 246.551 112.973 247.27 113.883 247.99C111.659 246.14 110.648 243.571 110.345 240.9C110.042 238.537 110.042 236.174 110.042 233.708C110.042 228.673 108.728 224.152 105.595 220.145C104.887 219.22 104.281 218.192 103.775 217.062C103.068 215.624 103.674 214.802 105.19 215.007C107.313 215.521 109.537 216.137 111.558 216.857C116.107 218.603 120.251 221.172 123.486 224.768C124.092 225.488 124.597 226.104 125.103 226.823C126.316 228.776 126.619 230.831 124.8 233.297C124.294 234.119 123.991 235.043 123.688 235.968C122.98 237.818 123.384 239.667 124.597 241.105C125.204 241.825 126.518 242.236 127.529 242.441C128.742 242.749 129.955 242.749 131.168 242.955C131.572 243.058 132.077 243.16 132.482 243.263C134.604 244.085 135.009 245.729 134.099 247.681C133.391 249.12 132.38 250.353 131.269 251.483C130.46 252.202 129.651 252.819 128.742 253.435C126.922 254.668 124.901 255.799 122.879 256.621V257.237V267.615C122.879 273.677 122.374 276.246 119.948 280.87V280.972H134.099V280.87C131.774 276.246 131.168 273.78 131.168 267.615V252.613C132.38 251.791 133.492 250.867 134.604 249.942C135.817 248.914 136.828 247.579 138.142 246.654C140.972 244.496 144.207 244.085 147.744 244.804C147.643 243.469 146.734 242.441 145.015 242.544Z" fill="#263141"/>
</g>
<defs>
<clipPath id="clip0">
<rect width="356" height="71" fill="white" transform="translate(78 211)"/>
</clipPath>
</defs>
</svg>
