<svg width="31" height="30" viewBox="0 0 31 30" fill="none" xmlns="http://www.w3.org/2000/svg">
<path d="M0.5 5C0.5 2.23858 2.73858 0 5.5 0H25.5C28.2614 0 30.5 2.23858 30.5 5V25C30.5 27.7614 28.2614 30 25.5 30H5.5C2.73858 30 0.5 27.7614 0.5 25V5Z" fill="#9799A7"/>
<path d="M13.9517 21.3069V15.4206H12.375V13.3183H13.9517V11.4263C13.9517 10.0248 14.8977 8.69336 17.1051 8.69336C17.9722 8.69336 18.6818 8.76343 18.6818 8.76343L18.6029 10.7956C18.6029 10.7956 17.9722 10.7956 17.1839 10.7956C16.3956 10.7255 16.3167 11.146 16.3167 11.7066V13.2482H18.6818L18.6029 15.3505H16.3167V21.3069H13.9517Z" fill="white"/>
</svg>
