<svg width="512" height="512" viewBox="0 0 512 512" fill="none" xmlns="http://www.w3.org/2000/svg">
<rect width="512" height="512" fill="#DCE9E1"/>
<path d="M262.107 292.533C247.431 294.784 232.309 292.983 217.188 292.083C207.403 291.183 197.174 289.833 187.39 289.383C178.05 288.933 169.155 289.833 160.26 292.983C156.702 294.333 153.589 295.684 150.476 297.484V299.734V328.989C150.476 355.543 147.807 366.795 137.578 387.048V387.498H199.843V387.048C189.169 366.795 186.945 355.993 186.945 328.989V292.083C202.511 292.983 218.077 295.234 233.644 296.134C250.099 297.484 266.555 294.333 282.121 289.383C287.903 287.582 293.24 285.782 298.132 283.532V281.731C287.013 286.682 275.005 290.733 262.107 292.533Z" fill="#263141"/>
<path d="M199.843 259.229C195.84 258.779 191.393 257.879 187.39 256.979V209.271C187.39 182.267 189.614 171.465 200.287 151.212V150.762H137.578V151.212C147.807 171.465 150.476 182.267 150.476 209.271V245.727C158.926 248.877 166.931 252.028 175.382 254.728C183.387 257.879 191.393 260.129 199.843 261.48C212.296 263.28 224.749 261.93 237.646 254.728C224.749 260.129 211.851 261.029 199.843 259.229Z" fill="#263141"/>
<path d="M396.867 219.172C383.97 219.622 372.406 216.471 362.177 208.82C356.395 204.32 348.835 204.77 341.719 207.92C339.495 208.82 337.716 210.17 335.492 211.071V209.27C335.492 182.266 338.161 171.464 348.39 151.211V150.761H311.921C310.142 147.61 307.918 144.01 304.805 140.859C281.233 114.305 250.101 99.9027 215.411 91.3514C183.389 82.8 150.477 80.0996 117.121 81.4498C112.229 81.4498 106.892 81.8998 102 82.3499V84.1502C129.13 85.5004 155.37 91.3514 180.276 101.253C209.184 112.505 231.421 131.858 238.093 162.013C240.761 175.065 240.761 189.017 241.651 202.519C242.095 213.321 243.874 223.673 249.656 232.674C252.325 236.725 255.883 239.875 259.885 243.026C250.101 234.924 245.653 223.673 244.319 211.971C242.985 201.619 242.985 191.267 242.985 180.466C242.985 158.412 237.203 138.609 223.416 121.056C220.303 117.005 217.634 112.505 215.411 107.554C212.297 101.253 214.966 97.6524 221.637 98.5525C230.977 100.803 240.761 103.503 249.656 106.654C269.67 114.305 287.904 125.557 302.136 141.309C304.805 144.46 307.029 147.16 309.252 150.311C314.589 158.862 315.923 167.864 307.918 178.665C305.694 182.266 304.36 186.317 303.026 190.367C299.913 198.469 301.692 206.57 307.029 212.871C309.697 216.021 315.479 217.822 319.926 218.722C325.263 220.072 330.6 220.072 335.937 220.972C337.716 221.422 339.94 221.872 341.719 222.322C351.059 225.923 352.837 233.124 348.835 241.676C345.722 247.977 341.274 253.377 336.382 258.328C332.824 261.479 329.266 264.179 325.263 266.88C317.258 272.28 308.363 277.231 299.468 280.832V283.532V328.99C299.468 355.544 297.244 366.796 286.57 387.049V387.499H348.835V387.049C338.606 366.796 335.937 355.994 335.937 328.99V263.279C341.274 259.678 346.166 255.628 351.058 251.577C356.395 247.076 360.843 241.225 366.625 237.175C379.078 227.723 393.309 225.923 408.876 229.074C408.431 223.223 404.428 218.722 396.867 219.172Z" fill="#263141"/>
</svg>
