<svg width="19" height="18" viewBox="0 0 19 18" fill="none" xmlns="http://www.w3.org/2000/svg">
<path d="M15.9908 10.3531C14.6692 12.0173 12.7691 13.7952 10.4306 15.9818C10.4301 15.9823 10.4296 15.9828 10.4291 15.9832L9.5 16.8379L8.57091 15.9832C8.57041 15.9828 8.56991 15.9823 8.56941 15.9818C6.2309 13.7952 4.33076 12.0173 3.0092 10.3531C1.69335 8.69615 1 7.21059 1 5.61721C1 3.00898 2.90916 1.01721 5.47647 1.01721C6.90996 1.01721 8.25163 1.68986 9.11248 2.74567L9.5 3.22095L9.88752 2.74567C10.7484 1.68986 12.09 1.01721 13.5235 1.01721C16.0908 1.01721 18 3.00898 18 5.61721C18 7.21059 17.3066 8.69615 15.9908 10.3531Z" fill="white" stroke="#263141"/>
</svg>
