<svg width="33" height="32" viewBox="0 0 33 32" fill="none" xmlns="http://www.w3.org/2000/svg">
<circle cx="16.5" cy="16" r="15.5" stroke="#9C5759"/>
<path d="M16.3532 17.82L16.0532 8.8H17.9132L17.6332 17.82H16.3532ZM16.0932 21.86C15.8532 21.62 15.7332 21.32 15.7332 20.96C15.7332 20.6 15.8532 20.3 16.0932 20.06C16.3465 19.82 16.6465 19.7 16.9932 19.7C17.3532 19.7 17.6532 19.82 17.8932 20.06C18.1332 20.3 18.2532 20.6 18.2532 20.96C18.2532 21.32 18.1332 21.62 17.8932 21.86C17.6532 22.1 17.3532 22.22 16.9932 22.22C16.6465 22.22 16.3465 22.1 16.0932 21.86Z" fill="#9C5759"/>
</svg>
