<svg width="31" height="30" viewBox="0 0 31 30" fill="none" xmlns="http://www.w3.org/2000/svg">
<path d="M0.5 5C0.5 2.23858 2.73858 0 5.5 0H25.5C28.2614 0 30.5 2.23858 30.5 5V25C30.5 27.7614 28.2614 30 25.5 30H5.5C2.73858 30 0.5 27.7614 0.5 25V5Z" fill="#9799A7"/>
<path d="M21.1362 14.1643C21.312 15.3498 21.1095 16.5605 20.5576 17.6243C20.0056 18.6881 19.1322 19.5507 18.0617 20.0895C16.9912 20.6283 15.7781 20.8159 14.5948 20.6255C13.4116 20.4351 12.3185 19.8765 11.4711 19.029C10.6237 18.1816 10.065 17.0885 9.87462 15.9053C9.68422 14.722 9.87176 13.5089 10.4106 12.4384C10.9494 11.3679 11.812 10.4945 12.8758 9.94255C13.9396 9.39058 15.1503 9.18809 16.3358 9.36388C17.5451 9.5432 18.6646 10.1067 19.529 10.9711C20.3934 11.8355 20.9569 12.955 21.1362 14.1643Z" stroke="white" stroke-width="2" stroke-linecap="round" stroke-linejoin="round" fill="#9799A7"/>
<ellipse cx="22.9359" cy="8.16251" rx="1.13956" ry="1.13956" fill="white"/>
</svg>
