<svg width="306" height="61" viewBox="0 0 306 61" fill="none" xmlns="http://www.w3.org/2000/svg">
<g clip-path="url(#clip0)">
<path d="M68.2899 60.0288H59.8623V59.9405C62.9032 56.7625 63.9458 53.9376 65.7703 48.994L79.2371 13.0649H80.4534L94.1809 49.7003C96.266 55.2618 97.6562 57.6453 99.8282 59.9405V60.0288H87.404V59.9405C88.4466 58.0867 88.4466 54.1141 86.709 49.4354L84.1894 42.5497H69.5063L68.203 46.0809C65.4228 53.4962 66.9867 57.8218 68.2899 59.9405V60.0288ZM76.8913 22.8638L70.0275 41.2256H83.755L76.8913 22.8638Z" fill="#263141"/>
<path d="M111.557 59.9406C113.555 55.9681 114.076 53.7611 114.076 48.5528V25.0708C114.076 19.7742 113.555 17.6555 111.557 13.683V13.5947H127.456C138.751 13.5947 143.269 18.0086 143.269 24.7177C143.269 30.0144 140.488 34.4283 134.233 36.4587L141.705 51.2894C144.398 56.586 145.701 57.9985 148.916 59.6758V60.0289H137.882L126.587 37.6063H121.114V48.5528C121.114 53.8494 121.548 55.9681 123.633 59.9406V60.0289H111.47V59.9406H111.557ZM121.201 14.9189V36.3704H126.066C133.972 36.3704 135.971 30.8089 135.971 24.6295C135.971 18.8914 133.712 14.8306 126.066 14.8306C125.284 14.8306 123.633 14.8306 121.201 14.9189Z" fill="#263141"/>
<path d="M160.646 60.029V59.9408C162.644 55.9683 163.165 53.7613 163.165 48.5529V25.071C163.165 19.7743 162.644 17.6557 160.646 13.6832V13.5949C169.768 13.5949 171.94 13.3301 176.979 13.3301C190.533 13.2418 192.879 19.3329 192.879 24.1882C192.879 29.1318 190.359 33.3691 184.364 35.3995C192.445 36.6354 195.225 41.8438 195.225 47.0522C195.225 54.291 190.012 60.029 177.066 60.029H160.646ZM177.588 35.223C183.93 35.1347 186.015 29.5732 186.015 24.5413C186.015 18.0971 182.366 14.5659 175.937 14.5659C173.504 14.5659 171.766 14.8308 170.289 15.1839V35.223H177.588ZM187.753 47.4053C187.753 41.0493 184.712 36.4589 178.196 36.4589H170.376V57.9986C171.853 58.3518 173.852 58.7932 176.284 58.7932C183.93 58.7932 187.753 54.2027 187.753 47.4053Z" fill="#263141"/>
<path d="M207.823 36.8999C207.823 23.3934 219.552 12.6235 231.368 12.6235C243.098 12.6235 255 23.3934 255 36.8999C255 50.4065 243.098 60.9998 231.368 60.9998C219.552 60.9998 207.823 50.3182 207.823 36.8999ZM247.007 36.8999C247.007 23.8348 242.142 13.9477 231.282 13.9477C220.508 13.9477 215.73 23.8348 215.73 36.8999C215.73 49.9651 220.508 59.7639 231.282 59.7639C242.142 59.7639 247.007 50.0533 247.007 36.8999Z" fill="#263141"/>
<path d="M268.641 59.9406C270.639 55.9681 271.16 53.7611 271.16 48.5528V25.0708C271.16 19.7742 270.639 17.6555 268.641 13.683V13.5947H284.54C295.835 13.5947 300.353 18.0086 300.353 24.7177C300.353 30.0144 297.572 34.4283 291.317 36.4587L298.789 51.2894C301.482 56.586 302.785 57.9985 306 59.6758V60.0289H294.966L283.758 37.6063H278.285V48.5528C278.285 53.8494 278.719 55.9681 280.804 59.9406V60.0289H268.641V59.9406ZM278.285 14.9189V36.3704H283.15C291.056 36.3704 293.055 30.8089 293.055 24.6295C293.055 18.8914 290.796 14.8306 283.15 14.8306C282.368 14.8306 280.717 14.8306 278.285 14.9189Z" fill="#263141"/>
<path d="M31.2773 41.4907C28.4102 41.9321 25.4562 41.579 22.5022 41.4025C20.5907 41.2259 18.5924 40.9611 16.681 40.8728C14.8565 40.7845 13.1188 40.9611 11.3812 41.579C10.6861 41.8439 10.078 42.1087 9.46979 42.4618V42.9032V48.6412C9.46979 53.8496 8.94849 56.0566 6.9502 60.0291V60.1174H19.1137V60.0291C17.0286 56.0566 16.5941 53.9379 16.5941 48.6412V41.4025C19.635 41.579 22.6759 42.0204 25.7168 42.197C28.9315 42.4618 32.1461 41.8439 35.187 40.8728C36.3165 40.5197 37.359 40.1666 38.3148 39.7252V39.3721C36.1427 40.3431 33.7969 41.1376 31.2773 41.4907Z" fill="#263141"/>
<path d="M19.1137 34.9581C18.3318 34.8698 17.463 34.6932 16.681 34.5167V25.1592C16.681 19.8626 17.1154 17.7439 19.2006 13.7714V13.6831H6.9502V13.7714C8.94849 17.7439 9.46979 19.8626 9.46979 25.1592V32.3097C11.1206 32.9277 12.6844 33.5456 14.3352 34.0753C15.8991 34.6932 17.463 35.1346 19.1137 35.3995C21.5464 35.7526 23.9792 35.4877 26.4987 34.0753C23.9792 35.1346 21.4596 35.3112 19.1137 34.9581Z" fill="#263141"/>
<path d="M57.6031 27.1011C55.0835 27.1894 52.8245 26.5715 50.8262 25.0707C49.6968 24.188 48.2198 24.2762 46.8296 24.8942C46.3952 25.0707 46.0477 25.3356 45.6133 25.5121V25.159C45.6133 19.8623 46.1346 17.7437 48.1329 13.7712V13.6829H41.0085C40.661 13.0649 40.2266 12.3587 39.6184 11.7408C35.0136 6.53238 28.9319 3.70749 22.155 2.03021C15.8995 0.352929 9.47019 -0.176738 2.954 0.0880957C1.9983 0.0880957 0.955707 0.176374 0 0.264651V0.617763C5.29983 0.882596 10.4259 2.03021 15.2913 3.97232C20.9387 6.17927 25.2828 9.97522 26.586 15.8898C27.1073 18.4499 27.1073 21.1865 27.2811 23.8348C27.368 25.9535 27.7155 27.9839 28.845 29.7495C29.3663 30.544 30.0613 31.1619 30.8433 31.7798C28.9319 30.1908 28.063 27.9839 27.8024 25.6887C27.5417 23.6583 27.5417 21.6279 27.5417 19.5092C27.5417 15.1836 26.4123 11.2994 23.7189 7.85655C23.1107 7.06205 22.5894 6.17927 22.155 5.20821C21.5468 3.97232 22.0681 3.2661 23.3714 3.44265C25.1959 3.88404 27.1073 4.41371 28.845 5.03166C32.7547 6.53238 36.3169 8.73933 39.0971 11.8291C39.6184 12.447 40.0528 12.9767 40.4872 13.5946C41.5298 15.2719 41.7905 17.0374 40.2266 19.1561C39.7922 19.8623 39.5315 20.6568 39.2709 21.4513C38.6627 23.0403 39.0102 24.6293 40.0528 25.8652C40.5741 26.4832 41.7036 26.8363 42.5724 27.0128C43.615 27.2777 44.6576 27.2777 45.7002 27.4542C46.0477 27.5425 46.4821 27.6308 46.8296 27.7191C48.6542 28.4253 49.0017 29.8377 48.2198 31.515C47.6116 32.7509 46.7428 33.8102 45.7871 34.7813C45.092 35.3992 44.3969 35.9289 43.615 36.4586C42.0511 37.5179 40.3135 38.489 38.5758 39.1952V39.7249V48.6409C38.5758 53.8493 38.1414 56.0563 36.0562 60.0288V60.117H48.2198V60.0288C46.2215 56.0563 45.7002 53.9376 45.7002 48.6409V35.7523C46.7428 35.0461 47.6985 34.2516 48.6542 33.4571C49.6968 32.5743 50.5656 31.4267 51.6951 30.6322C54.1278 28.7784 56.908 28.4253 59.9489 29.0432C59.862 27.8956 59.0801 27.0128 57.6031 27.1011Z" fill="#263141"/>
</g>
<defs>
<clipPath id="clip0">
<rect width="306" height="61" fill="white"/>
</clipPath>
</defs>
</svg>
