<svg width="70" height="71" viewBox="0 0 70 71" fill="none" xmlns="http://www.w3.org/2000/svg">
<path d="M36.388 48.2922C33.0524 48.8059 29.6157 48.3949 26.1791 48.1894C23.9553 47.9839 21.6305 47.6757 19.4068 47.5729C17.2841 47.4702 15.2625 47.6757 13.241 48.3949C12.4323 48.7032 11.7248 49.0114 11.0172 49.4224V49.9362V56.6149C11.0172 62.6771 10.4108 65.2459 8.08594 69.8696V69.9723H22.237V69.8696C19.8111 65.2459 19.3057 62.7799 19.3057 56.6149V48.1894C22.8435 48.3949 26.3812 48.9087 29.919 49.1142C33.6589 49.4224 37.3988 48.7032 40.9366 47.5729C42.2506 47.1619 43.4636 46.7509 44.5754 46.2372V45.8262C42.0485 46.9564 39.3193 47.8812 36.388 48.2922Z" fill="#263141"/>
<path d="M22.237 40.6889C21.3273 40.5862 20.3165 40.3807 19.4068 40.1752V29.2837C19.4068 23.1187 19.9122 20.6528 22.3381 16.029V15.9263H8.08594V16.029C10.4108 20.6528 11.0172 23.1187 11.0172 29.2837V37.6064C12.9377 38.3257 14.7571 39.0449 16.6776 39.6614C18.4971 40.3807 20.3165 40.8944 22.237 41.2027C25.0672 41.6137 27.8974 41.3054 30.8287 39.6614C27.8974 40.8944 24.9661 41.0999 22.237 40.6889Z" fill="#263141"/>
<path d="M67.0153 31.544C64.084 31.6467 61.456 30.9275 59.1312 29.1807C57.8171 28.1533 56.0988 28.256 54.4815 28.9753C53.9762 29.1808 53.5718 29.489 53.0664 29.6945V29.2835C53.0664 23.1185 53.6729 20.6525 55.9977 16.0288V15.926H47.7093C47.3049 15.2068 46.7995 14.3848 46.092 13.6656C40.7348 7.60333 33.6593 4.31534 25.7751 2.36309C18.4974 0.410851 11.0176 -0.205647 3.43668 0.102602C2.32482 0.102602 1.11187 0.205351 0 0.308101V0.7191C6.16581 1.02735 12.1295 2.36309 17.7899 4.62359C24.36 7.19233 29.414 11.6106 30.9302 18.4948C31.5366 21.4745 31.5366 24.6598 31.7388 27.7423C31.8399 30.2082 32.2442 32.5715 33.5582 34.6265C34.1647 35.5512 34.9733 36.2705 35.883 36.9897C33.6593 35.1402 32.6485 32.5715 32.3453 29.9C32.042 27.5368 32.042 25.1735 32.042 22.7075C32.042 17.6728 30.728 13.1518 27.5945 9.14457C26.887 8.21982 26.2805 7.19233 25.7751 6.06208C25.0676 4.62359 25.674 3.80159 27.1902 4.00709C29.3129 4.52084 31.5366 5.13733 33.5582 5.85658C38.1068 7.60333 42.251 10.1721 45.4855 13.7683C46.092 14.4876 46.5974 15.104 47.1028 15.8233C48.3157 17.7755 48.619 19.8305 46.7995 22.2965C46.2941 23.1185 45.9909 24.0433 45.6877 24.968C44.9801 26.8175 45.3844 28.667 46.5974 30.1055C47.2039 30.8247 48.5179 31.2357 49.5287 31.4412C50.7416 31.7495 51.9546 31.7495 53.1675 31.955C53.5718 32.0577 54.0772 32.1605 54.4815 32.2632C56.6042 33.0852 57.0085 34.7292 56.0988 36.6815C55.3913 38.12 54.3805 39.353 53.2686 40.4832C52.46 41.2025 51.6513 41.819 50.7416 42.4355C48.9222 43.6684 46.9006 44.7987 44.879 45.6207V46.2372V56.6149C44.879 62.6771 44.3736 65.2459 41.9478 69.8696V69.9724H56.0988V69.8696C53.774 65.2459 53.1675 62.7799 53.1675 56.6149V41.6135C54.3805 40.7915 55.4923 39.8667 56.6042 38.942C57.8171 37.9145 58.8279 36.5787 60.142 35.654C62.9722 33.4962 66.2067 33.0852 69.7445 33.8045C69.6434 32.4687 68.7337 31.4412 67.0153 31.544Z" fill="#263141"/>
</svg>
