<svg width="10" height="15" viewBox="0 0 10 15" fill="none" xmlns="http://www.w3.org/2000/svg">
<path d="M2.71429 4V2.3C2.71429 1.95522 2.83469 1.62456 3.04902 1.38076C3.26335 1.13696 3.55404 1 3.85714 1H6.14286C6.44596 1 6.73665 1.13696 6.95098 1.38076C7.16531 1.62456 7.28571 1.95522 7.28571 2.3V4M9 4V12.7C9 13.0448 8.87959 13.3754 8.66527 13.6192C8.45094 13.863 8.16025 14 7.85714 14H2.14286C1.83975 14 1.54906 13.863 1.33474 13.6192C1.12041 13.3754 1 13.0448 1 12.7V4H9Z" stroke="#263141" stroke-linecap="round" stroke-linejoin="round"/>
</svg>
