<svg width="16" height="19" viewBox="0 0 16 19" fill="none" xmlns="http://www.w3.org/2000/svg">
<path d="M14.2812 14.1022L10.0625 12.4894C9.5 12.2997 9.125 11.7304 9.21875 11.1612C10.3438 10.3074 11.6562 8.88437 11.6562 7.2716V5.37422C11.6562 5.37422 11.375 4.33066 11 4.04605C10.7187 3.85631 10.1562 3.2871 9.78125 2.81275C9.40625 2.33841 9.21875 2.24354 9.125 1.86406C9.03125 1.48458 8.28125 0.820501 8.1875 1.19998C8.09375 1.57945 7.25 1.76919 6.59375 2.14867C5.9375 2.52814 5.5625 2.52814 5.28125 3.09736C5.09375 3.66657 4.34375 5.08961 4.34375 6.32291V7.2716C4.34375 8.97924 5.65625 10.4023 6.78125 11.1612C6.78125 11.7304 6.40625 12.2997 5.84375 12.3945L5.65625 12.4894L1.71875 14.3868C1.15625 14.6714 0.6875 15.2406 0.5 15.8098V18.0867C0.5 18.0867 4.25 18.0867 8 18.0867C11.75 18.0867 15.5 18.0867 15.5 18.0867V15.8098C15.3125 15.2406 14.8437 14.3868 14.2812 14.1022Z" stroke="#263141" fill="none"/>
</svg>
