<svg width="17" height="19" viewBox="0 0 17 19" fill="none" xmlns="http://www.w3.org/2000/svg">
<path d="M14.8398 14.0155L10.6211 12.4027C10.0586 12.213 9.68359 11.6438 9.77734 11.0746C10.9023 10.2207 12.2148 8.7977 12.2148 7.18493V5.28755C12.2148 5.28755 11.9336 4.24399 11.5586 3.95938C11.2773 3.76964 10.7148 3.20043 10.3398 2.72608C9.96484 2.25174 9.77734 2.15687 9.68359 1.77739C9.58984 1.39791 8.83984 0.733831 8.74609 1.11331C8.65234 1.49278 7.80859 1.68252 7.15234 2.062C6.49609 2.44147 6.12109 2.44147 5.83984 3.01069C5.65234 3.5799 4.90234 5.00294 4.90234 6.23624V7.18493C4.90234 8.89257 6.21484 10.3156 7.33984 11.0746C7.33984 11.6438 6.96484 12.213 6.40234 12.3079L6.21484 12.4027L2.27734 14.3001C1.71484 14.5847 1.24609 15.1539 1.05859 15.7231V18C1.05859 18 4.80859 18 8.55859 18C12.3086 18 16.0586 18 16.0586 18V15.7231C15.8711 15.1539 15.4023 14.3001 14.8398 14.0155Z" stroke="#263141"/>
</svg>
