<svg xmlns="http://www.w3.org/2000/svg" xmlns:xlink="http://www.w3.org/1999/xlink">
    <symbol id="sp-icon-fb" viewBox="0 0 31 30">
        <path d="M0.5 5C0.5 2.23858 2.73858 0 5.5 0H25.5C28.2614 0 30.5 2.23858 30.5 5V25C30.5 27.7614 28.2614 30 25.5 30H5.5C2.73858 30 0.5 27.7614 0.5 25V5Z" fill="#9799A7"/>
        <path d="M13.9517 21.3069V15.4206H12.375V13.3183H13.9517V11.4263C13.9517 10.0248 14.8977 8.69336 17.1051 8.69336C17.9722 8.69336 18.6818 8.76343 18.6818 8.76343L18.6029 10.7956C18.6029 10.7956 17.9722 10.7956 17.1839 10.7956C16.3956 10.7255 16.3167 11.146 16.3167 11.7066V13.2482H18.6818L18.6029 15.3505H16.3167V21.3069H13.9517Z" fill="white"/>
    </symbol>
    <symbol id="sp-icon-insta" viewBox="0 0 31 30">
        <path d="M0.5 5C0.5 2.23858 2.73858 0 5.5 0H25.5C28.2614 0 30.5 2.23858 30.5 5V25C30.5 27.7614 28.2614 30 25.5 30H5.5C2.73858 30 0.5 27.7614 0.5 25V5Z" fill="#9799A7"/>
        <path d="M21.1362 14.1643C21.312 15.3498 21.1095 16.5605 20.5576 17.6243C20.0056 18.6881 19.1322 19.5507 18.0617 20.0895C16.9912 20.6283 15.7781 20.8159 14.5948 20.6255C13.4116 20.4351 12.3185 19.8765 11.4711 19.029C10.6237 18.1816 10.065 17.0885 9.87462 15.9053C9.68422 14.722 9.87176 13.5089 10.4106 12.4384C10.9494 11.3679 11.812 10.4945 12.8758 9.94255C13.9396 9.39058 15.1503 9.18809 16.3358 9.36388C17.5451 9.5432 18.6646 10.1067 19.529 10.9711C20.3934 11.8355 20.9569 12.955 21.1362 14.1643Z" stroke="white" stroke-width="2" stroke-linecap="round" stroke-linejoin="round" fill="#9799A7"/>
        <ellipse cx="22.9359" cy="8.16251" rx="1.13956" ry="1.13956" fill="white"/>
    </symbol>
    <symbol id="sp-icon-vk" viewBox="0 0 31 30">
        <path d="M0.5 5C0.5 2.23858 2.73858 0 5.5 0H25.5C28.2614 0 30.5 2.23858 30.5 5V25C30.5 27.7614 28.2614 30 25.5 30H5.5C2.73858 30 0.5 27.7614 0.5 25V5Z" fill="#9799A7"/>
        <path d="M15.3471 19.3524H16.1997C16.1997 19.3524 16.4572 19.3218 16.5888 19.169C16.7098 19.0285 16.706 18.765 16.706 18.765C16.706 18.765 16.6893 17.5309 17.2202 17.3492C17.7438 17.1701 18.4159 18.5419 19.1283 19.0694C19.667 19.4685 20.0764 19.3811 20.0764 19.3811L21.9814 19.3524C21.9814 19.3524 22.9779 19.2861 22.5054 18.4409C22.4667 18.3719 22.2301 17.8157 21.0889 16.6731C19.8943 15.4772 20.0544 15.6707 21.4933 13.602C22.3696 12.3422 22.7198 11.5731 22.6104 11.2437C22.5061 10.9299 21.8616 11.0128 21.8616 11.0128L19.7167 11.0271C19.7167 11.0271 19.5576 11.0037 19.4397 11.0798C19.3244 11.1542 19.2505 11.328 19.2505 11.328C19.2505 11.328 18.9108 12.3029 18.4583 13.132C17.5032 14.8814 17.1212 14.974 16.9651 14.8652C16.6019 14.612 16.6926 13.8482 16.6926 13.3054C16.6926 11.61 16.931 10.9032 16.2284 10.7202C15.9953 10.6595 15.8235 10.6193 15.2272 10.6128C14.4619 10.6044 13.8142 10.6153 13.4474 10.8091C13.2034 10.938 13.0152 11.2252 13.1299 11.2418C13.2717 11.2621 13.5926 11.3352 13.7628 11.585C13.9827 11.9076 13.975 12.632 13.975 12.632C13.975 12.632 14.1013 14.6277 13.6801 14.8756C13.391 15.0456 12.9943 14.6985 12.1428 13.1114C11.7066 12.2984 11.3771 11.3996 11.3771 11.3996C11.3771 11.3996 11.3137 11.2317 11.2004 11.1418C11.0629 11.0329 10.8709 10.9984 10.8709 10.9984L8.83263 11.0128C8.83263 11.0128 8.5267 11.022 8.41429 11.1655C8.31429 11.2932 8.4063 11.5572 8.4063 11.5572C8.4063 11.5572 10.0019 15.5842 11.8089 17.6136C13.4658 19.4745 15.3471 19.3524 15.3471 19.3524Z" fill="white"/>
    </symbol>
</svg>